{
    "asset" : {
        "generator" : "Khronos glTF Blender I/O v3.2.43",
        "version" : "2.0"
    },
    "scene" : 0,
    "scenes" : [
        {
            "name" : "Scene",
            "nodes" : [
                0
            ]
        }
    ],
    "nodes" : [
        {
            "mesh" : 0,
            "name" : "10461_Yucca_Plant_v1.001",
            "scale" : [
                0.09064531326293945,
                0.09064531326293945,
                0.09064531326293945
            ]
        }
    ],
    "materials" : [
        {
            "name" : "10461_Yucca_Plant_v1.001",
            "pbrMetallicRoughness" : {
                "baseColorTexture" : {
                    "index" : 0
                }
            }
        }
    ],
    "meshes" : [
        {
            "name" : "10461_Yucca_Plant_v1.001",
            "primitives" : [
                {
                    "attributes" : {
                        "POSITION" : 0,
                        "NORMAL" : 1,
                        "TEXCOORD_0" : 2
                    },
                    "indices" : 3,
                    "material" : 0
                }
            ]
        }
    ],
    "textures" : [
        {
            "sampler" : 0,
            "source" : 0
        }
    ],
    "images" : [
        {
            "mimeType" : "image/jpeg",
            "name" : "10461_Yucca_Plant_v1_Diffuse",
            "uri" : "10461_Yucca_Plant_v1_Diffuse.jpg"
        }
    ],
    "accessors" : [
        {
            "bufferView" : 0,
            "componentType" : 5126,
            "count" : 2572,
            "max" : [
                69.39865112304688,
                157.02902221679688,
                88.50428009033203
            ],
            "min" : [
                -68.4838638305664,
                0.007005578372627497,
                -69.0229721069336
            ],
            "type" : "VEC3"
        },
        {
            "bufferView" : 1,
            "componentType" : 5126,
            "count" : 2572,
            "type" : "VEC3"
        },
        {
            "bufferView" : 2,
            "componentType" : 5126,
            "count" : 2572,
            "type" : "VEC2"
        },
        {
            "bufferView" : 3,
            "componentType" : 5123,
            "count" : 7584,
            "type" : "SCALAR"
        }
    ],
    "bufferViews" : [
        {
            "buffer" : 0,
            "byteLength" : 30864,
            "byteOffset" : 0
        },
        {
            "buffer" : 0,
            "byteLength" : 30864,
            "byteOffset" : 30864
        },
        {
            "buffer" : 0,
            "byteLength" : 20576,
            "byteOffset" : 61728
        },
        {
            "buffer" : 0,
            "byteLength" : 15168,
            "byteOffset" : 82304
        }
    ],
    "samplers" : [
        {
            "magFilter" : 9729,
            "minFilter" : 9987
        }
    ],
    "buffers" : [
        {
            "byteLength" : 97472,
            "uri" : "model.bin"
        }
    ]
}
